<?xml version="1.0" encoding="iso-8859-1"?>
<!-- Generator: Adobe Illustrator 18.0.0, SVG Export Plug-In . SVG Version: 6.00 Build 0)  -->
<!DOCTYPE svg PUBLIC "-//W3C//DTD SVG 1.1//EN" "http://www.w3.org/Graphics/SVG/1.1/DTD/svg11.dtd">
<svg version="1.1" id="Capa_1" xmlns="http://www.w3.org/2000/svg" xmlns:xlink="http://www.w3.org/1999/xlink" x="0px" y="0px"
	 viewBox="0 0 127.61 127.61" style="enable-background:new 0 0 127.61 127.61;" xml:space="preserve">
<g>
	<path style="fill-rule:evenodd;clip-rule:evenodd;fill:#FF690F;" d="M52.067,74.325C26.115,85.702,18.33,91.769,15.252,94.491
		C10.51,98.688,7.887,114.329,5.09,127.61h58.715h58.715c-2.797-13.281-5.42-28.923-10.162-33.119
		c-3.077-2.723-10.577-8.633-36.529-20.01L52.067,74.325z"/>
	<path style="fill-rule:evenodd;clip-rule:evenodd;fill:#FFDECC;" d="M76.406,51.646v28.767c-6.931,8.488-18.271,8.194-25.201,0
		V51.646C51.204,36.113,76.406,36.113,76.406,51.646z"/>
	<path style="fill-rule:evenodd;clip-rule:evenodd;fill:#F7C5AA;" d="M76.406,51.646v19.26c-4.769,3.476-9.364,5.423-12.601,5.423
		c-3.236,0-7.833-1.947-12.601-5.423v-19.26C51.204,36.113,76.406,36.113,76.406,51.646z"/>
	<path style="fill-rule:evenodd;clip-rule:evenodd;fill:#FFDECC;" d="M63.805,0c-42.292,0-27.083,51.101-24.32,55.17
		c3.046,4.485,17.487,16.376,24.32,16.376c6.832,0,21.273-11.891,24.32-16.376C90.888,51.101,106.096,0,63.805,0z"/>
	<path style="fill-rule:evenodd;clip-rule:evenodd;fill:#FFFFFF;" d="M50.245,50.698c3.548,2.783,23.572,2.63,27.119,0
		C74.283,65.343,54.334,65.793,50.245,50.698z"/>
	
		<ellipse transform="matrix(-0.3127 -0.9498 0.9498 -0.3127 8.7122 80.8165)" style="fill-rule:evenodd;clip-rule:evenodd;fill:#FFDECC;" cx="33.594" cy="37.256" rx="7.317" ry="4.231"/>
	
		<ellipse transform="matrix(0.3128 -0.9498 0.9498 0.3128 29.1459 114.796)" style="fill-rule:evenodd;clip-rule:evenodd;fill:#FFDECC;" cx="93.904" cy="37.256" rx="7.317" ry="4.231"/>
	<path style="fill-rule:evenodd;clip-rule:evenodd;fill:#CC7C54;" d="M63.805,63.021c4.385,0.507,2.058,5.884,6.25,3.897
		c4.397-2.083,12.268-6.481,15.508-10.647c3.241-4.167,3.704-6.019,4.861-16.666c1.158-10.649-0.23-29.86-7.176-29.397
		c-6.943,0.463-11.342,1.62-19.443,1.62V0c29.56,0,29.266,15.834,29.238,30.576c-0.021,11.74-3.693,22.79-4.918,24.594
		c-3.047,4.485-17.488,16.376-24.32,16.376V63.021z M63.111,62.982c0.248,0,0.479,0.014,0.694,0.038v8.525
		c-6.833,0-21.274-11.891-24.32-16.376c-1.305-1.922-5.387-14.336-4.874-26.902C35.183,14.229,33.619,0,63.805,0v11.827
		c-8.102,0-12.5-1.157-19.444-1.62c-6.944-0.463-8.333,18.749-7.175,29.397c1.156,10.647,1.619,12.499,4.86,16.666
		c3.241,4.166,11.11,8.564,15.509,10.647S57.787,62.982,63.111,62.982z"/>
	<path style="fill-rule:evenodd;clip-rule:evenodd;fill:#FFFFFF;" d="M50.008,74.018l-8.937,4.837l12.959,17.963l9.832-9.327
		L50.008,74.018z"/>
	<path style="fill-rule:evenodd;clip-rule:evenodd;fill:#FFFFFF;" d="M77.716,74.018l8.937,4.837L73.695,96.817l-9.832-9.327
		L77.716,74.018z"/>
	<g>
		<path style="fill-rule:evenodd;clip-rule:evenodd;fill:#BA4F0D;" d="M29.018,127.61h2.012c-0.09-8.941-0.09-15.386-0.09-15.386
			S30.049,118.922,29.018,127.61z"/>
		<path style="fill-rule:evenodd;clip-rule:evenodd;fill:#BA4F0D;" d="M98.592,127.61H96.58c0.09-8.941,0.09-15.386,0.09-15.386
			S97.561,118.922,98.592,127.61z"/>
	</g>
</g>
<g>
</g>
<g>
</g>
<g>
</g>
<g>
</g>
<g>
</g>
<g>
</g>
<g>
</g>
<g>
</g>
<g>
</g>
<g>
</g>
<g>
</g>
<g>
</g>
<g>
</g>
<g>
</g>
<g>
</g>
</svg>
