<?xml version="1.0" encoding="iso-8859-1"?>
<!-- Generator: Adobe Illustrator 18.0.0, SVG Export Plug-In . SVG Version: 6.00 Build 0)  -->
<!DOCTYPE svg PUBLIC "-//W3C//DTD SVG 1.1//EN" "http://www.w3.org/Graphics/SVG/1.1/DTD/svg11.dtd">
<svg version="1.1" id="Capa_1" xmlns="http://www.w3.org/2000/svg" xmlns:xlink="http://www.w3.org/1999/xlink" x="0px" y="0px"
	 viewBox="0 0 130.588 130.588" style="enable-background:new 0 0 130.588 130.588;" xml:space="preserve">
<g>
	<path style="fill-rule:evenodd;clip-rule:evenodd;fill:#FFDECC;" d="M53.555,77.302C27.604,88.68,19.818,94.745,16.741,97.468
		c-4.742,4.196-7.365,19.838-10.162,33.12h58.715h58.715c-2.797-13.282-5.421-28.924-10.162-33.12
		c-3.077-2.724-10.577-8.633-36.529-20.01L53.555,77.302z"/>
	<path style="fill-rule:evenodd;clip-rule:evenodd;fill:#FFDECC;" d="M79.154,54.624v28.767c-7.623,8.488-20.098,8.194-27.722,0
		V54.624C51.433,39.09,79.154,39.09,79.154,54.624z"/>
	<path style="fill-rule:evenodd;clip-rule:evenodd;fill:#F7C5AA;" d="M79.154,54.624v19.259c-5.245,3.476-10.301,5.423-13.86,5.423
		c-3.56,0-8.616-1.947-13.861-5.422v-19.26C51.433,39.09,79.154,39.09,79.154,54.624z"/>
	
		<ellipse transform="matrix(-0.3128 -0.9498 0.9498 -0.3128 10.4436 83.1176)" style="fill-rule:evenodd;clip-rule:evenodd;fill:#FFDECC;" cx="35.291" cy="37.781" rx="7.317" ry="4.231"/>
	
		<ellipse transform="matrix(0.3128 -0.9498 0.9498 0.3128 29.8123 116.7671)" style="fill-rule:evenodd;clip-rule:evenodd;fill:#FFDECC;" cx="95.601" cy="37.781" rx="7.317" ry="4.231"/>
	<path style="fill-rule:evenodd;clip-rule:evenodd;fill:#F7C5AA;" d="M50.855,53.675c3.902,2.784,25.929,2.63,29.83,0
		C77.295,68.319,55.352,68.77,50.855,53.675z"/>
	<path style="fill-rule:evenodd;clip-rule:evenodd;fill:#86BCEB;" d="M43.789,81.726C25.54,90.294,19.393,95.122,16.741,97.468
		c-4.742,4.196-7.365,19.838-10.162,33.12h58.715h58.715c-2.797-13.282-5.421-28.924-10.162-33.12
		c-2.563-2.267-8.194-6.745-24.988-14.748c-0.119,0.124-0.241,0.246-0.358,0.372c-15.766,17.053-38.1,8.671-44.143-0.578
		C44.169,82.246,43.979,81.989,43.789,81.726z"/>
	<path style="fill-rule:evenodd;clip-rule:evenodd;fill:#B6DBFC;" d="M13.764,102.044c-2.986,6.728-5.034,18.332-7.185,28.543
		h23.835C29.882,113.929,29.852,105.068,13.764,102.044z"/>
	<path style="fill-rule:evenodd;clip-rule:evenodd;fill:#B6DBFC;" d="M116.824,102.044c2.986,6.728,5.034,18.332,7.185,28.543
		h-23.836C100.706,113.929,100.736,105.068,116.824,102.044z"/>
	<path style="fill-rule:evenodd;clip-rule:evenodd;fill:#B6DBFC;" d="M43.807,81.726c-1.2,0.562-2.346,1.108-3.445,1.639
		c8.301,11.749,33.744,23.229,51.199,0.606c-0.836-0.407-1.699-0.823-2.597-1.25c-0.12,0.124-0.242,0.246-0.359,0.372
		c-15.796,17.053-38.173,8.671-44.228-0.578C44.188,82.246,43.996,81.989,43.807,81.726z"/>
	<path style="fill-rule:evenodd;clip-rule:evenodd;fill:#FFDECC;" d="M65.293,2.85c-42.291,0-27.082,51.101-24.319,55.169
		c3.046,4.486,17.487,16.377,24.319,16.377c6.833,0,21.274-11.89,24.32-16.377C92.377,53.951,107.585,2.85,65.293,2.85z"/>
	<path style="fill-rule:evenodd;clip-rule:evenodd;fill:#FFFFFF;" d="M55.489,56.319c2.69,1.462,17.872,1.381,20.562,0
		C73.714,64.008,58.589,64.244,55.489,56.319z"/>
	<path style="fill-rule:evenodd;clip-rule:evenodd;fill:#FF690F;" d="M112.897,47.168c-6.75-2.459-16.402-15.989-19.271-27.876
		C87.917-4.357,47.489-4.871,41.313,10.197C27.605,22.309,37.69,54.417,37.69,46.259c0-8.158,2.559-15.172,6.162-21.268
		c4.479,9.311,14.527,17.735,25.095,16.815c-7.241-6.077-11.259-8.7-12.941-18.487C61.193,38.077,88.704,52.895,112.897,47.168z"/>
</g>
<g>
</g>
<g>
</g>
<g>
</g>
<g>
</g>
<g>
</g>
<g>
</g>
<g>
</g>
<g>
</g>
<g>
</g>
<g>
</g>
<g>
</g>
<g>
</g>
<g>
</g>
<g>
</g>
<g>
</g>
</svg>
