<?xml version="1.0" encoding="iso-8859-1"?>
<!-- Generator: Adobe Illustrator 18.0.0, SVG Export Plug-In . SVG Version: 6.00 Build 0)  -->
<!DOCTYPE svg PUBLIC "-//W3C//DTD SVG 1.1//EN" "http://www.w3.org/Graphics/SVG/1.1/DTD/svg11.dtd">
<svg version="1.1" id="Capa_1" xmlns="http://www.w3.org/2000/svg" xmlns:xlink="http://www.w3.org/1999/xlink" x="0px" y="0px"
	 viewBox="0 0 108.757 108.757" style="enable-background:new 0 0 108.757 108.757;" xml:space="preserve">
<g>
	<path style="fill-rule:evenodd;clip-rule:evenodd;fill:#FFC65D;" d="M23.13,61.321C19.041,19.21,30.602,0.004,54.635,0.004
		C78.668,0.003,91.506,21.79,85.626,61.32C67.639,71.862,38.649,70.133,23.13,61.321z"/>
	<path style="fill-rule:evenodd;clip-rule:evenodd;fill:#FFDECC;" d="M64.047,68.312c-0.198,0.313-19.745,0.624-19.961,0.933
		c-6.14,8.759-19.404,12.595-29.951,14.953c-10.497,2.348-10.903,15.68-10.919,24.56h102.325c-0.017-8.88-0.211-22.165-10.92-24.56
		C83.913,81.803,69.871,77.469,64.047,68.312z"/>
	<path style="fill-rule:evenodd;clip-rule:evenodd;fill:#FFDECC;" d="M64.63,49.608v25.117c-5.639,7.411-14.865,7.155-20.503,0
		V49.608C44.127,36.046,64.63,36.046,64.63,49.608z"/>
	<path style="fill-rule:evenodd;clip-rule:evenodd;fill:#F7C5AA;" d="M64.63,49.608v16.816c-3.88,3.035-7.618,4.735-10.252,4.735
		c-2.633,0-6.372-1.7-10.251-4.735V49.608C44.127,36.046,64.63,36.046,64.63,49.608z"/>
	<path style="fill-rule:evenodd;clip-rule:evenodd;fill:#FFDECC;" d="M54.378,66.983c-6.675,0-20.775-10.495-25.134-25.524
		C24.842,26.282,33.131,4.514,54.378,4.514s29.537,21.768,25.135,36.944C75.153,56.489,61.053,66.983,54.378,66.983z"/>
	<path style="fill-rule:evenodd;clip-rule:evenodd;fill:#FF386A;" d="M46.716,51.851c3.401-3.293,6.054-0.823,8.04-0.823
		c1.986,0,4.639-2.47,8.041,0.823C60.969,60.536,49.14,60.802,46.716,51.851z"/>
	<path style="fill-rule:evenodd;clip-rule:evenodd;fill:#FFFFFF;" d="M48.035,52.3c1.86-0.476,11.329-0.572,13.992-0.104
		C59.828,56.246,49.897,56.011,48.035,52.3z"/>
	<path style="fill-rule:evenodd;clip-rule:evenodd;fill:#FF386A;" d="M46.716,51.851c3.401-3.292,6.054-0.823,8.04-0.823
		c1.986,0,4.64-2.469,8.041,0.823C57.596,54.414,50.217,53.216,46.716,51.851z"/>
	
		<ellipse transform="matrix(-0.3946 -0.9189 0.9189 -0.3946 0.6531 83.1276)" style="fill-rule:evenodd;clip-rule:evenodd;fill:#FFDECC;" cx="27.712" cy="41.349" rx="7.317" ry="4.231"/>
	
		<ellipse transform="matrix(0.3946 -0.9188 0.9188 0.3946 11.154 99.6278)" style="fill-rule:evenodd;clip-rule:evenodd;fill:#FFDECC;" cx="81.184" cy="41.349" rx="7.316" ry="4.232"/>
	<path style="fill-rule:evenodd;clip-rule:evenodd;fill:#FFC65D;" d="M68.33,15.619c10.794,6.877,11.427,16.115,11.869,23.255
		C85.052,32.826,85.47,11.412,68.33,15.619z"/>
	<path style="fill-rule:evenodd;clip-rule:evenodd;fill:#FFC65D;" d="M40.582,15.619c-10.795,6.877-11.428,16.115-11.869,23.255
		C23.86,32.826,23.442,11.412,40.582,15.619z"/>
	<path style="fill-rule:evenodd;clip-rule:evenodd;fill:#FFC65D;" d="M26.987,22.02c0.941-30.784,54.538-27.9,54.783,0
		c-5.51,1.322-12.197,2.106-19.146,2.433c-0.39-2.76-1.193-6.296-2.589-10.783c-0.738,2.122-1.237,6.761-1.457,10.922
		c-4.062,0.088-8.151,0.027-12.093-0.166c-0.229-4.061-0.72-8.49-1.437-10.55c-1.316,4.233-2.106,7.62-2.518,10.308
		C36.633,23.748,31.235,23.008,26.987,22.02z"/>
	<g>
		<path style="fill-rule:evenodd;clip-rule:evenodd;fill:#FF690F;" d="M65.938,32.785C72.44,32.343,76,33.543,76.666,33.792
			c0.803,0.301,0.618,2.473-0.062,2.905c-0.68,0.433-1.235,2.163-2.843,4.326c-1.033,1.391-4.651,1.979-7.824,2.137v-0.607
			c2.594-0.12,5.311-0.584,6.492-1.397c2.398-1.651,2.627-5.166,0.865-6.802c-0.924-0.859-4.145-1.099-7.357-0.945V32.785z
			 M42.819,32.785l0.273,0.019c6.675,0.494,8.097,1.792,8.776,1.731c0.795-0.072,1.654-0.181,2.466-0.181s1.73,0.105,2.557,0.181
			c0.68,0.061,2.101-1.236,8.775-1.731l0.272-0.019v0.624l-0.033,0.002c-3.225,0.156-7.431,0.904-8.257,2.752
			c-0.825,1.848,0.747,5.15,3.027,5.976c1.035,0.375,3.106,0.514,5.263,0.415v0.607c-1.764,0.087-3.389,0.041-4.357-0.075
			c-2.719-0.325-4.753-3.606-5.123-4.596c-0.834-2.222-3.324-2.222-4.157,0c-0.371,0.989-2.405,4.27-5.124,4.596
			c-0.969,0.116-2.594,0.162-4.358,0.075v-0.607c2.157,0.099,4.229-0.04,5.264-0.415c2.279-0.825,3.853-4.128,3.026-5.976
			c-0.825-1.848-5.032-2.596-8.256-2.752l-0.034-0.002V32.785z M32.09,33.792c0.667-0.249,4.228-1.449,10.729-1.008v0.624
			c-3.212-0.154-6.433,0.087-7.357,0.945c-1.761,1.636-1.533,5.15,0.865,6.802c1.182,0.813,3.898,1.277,6.492,1.397v0.607
			c-3.173-0.157-6.791-0.746-7.823-2.137c-1.607-2.163-2.163-3.894-2.843-4.326C31.472,36.265,31.287,34.093,32.09,33.792z"/>
		<path style="fill-rule:evenodd;clip-rule:evenodd;fill:#FFDECC;" d="M35.461,34.354c0.928-0.861,4.168-1.101,7.392-0.943
			c3.224,0.156,7.431,0.904,8.256,2.752c0.826,1.848-0.747,5.15-3.026,5.976c-2.281,0.826-9.592,0.508-11.756-0.982
			C33.928,39.504,33.7,35.99,35.461,34.354z"/>
		<path style="fill-rule:evenodd;clip-rule:evenodd;fill:#FFDECC;" d="M73.295,34.354c-0.927-0.861-4.167-1.101-7.391-0.943
			c-3.225,0.156-7.431,0.904-8.257,2.752c-0.825,1.848,0.747,5.15,3.027,5.976c2.28,0.826,9.591,0.508,11.755-0.982
			C74.828,39.504,75.057,35.99,73.295,34.354z"/>
	</g>
	<path style="fill-rule:evenodd;clip-rule:evenodd;fill:#68C497;" d="M11.866,84.937c-8.289,3.653-8.636,15.63-8.65,23.82h102.325
		c-0.016-8.197-0.183-20.147-8.633-23.82C68.561,96.835,40.214,96.421,11.866,84.937z"/>
	<path style="fill:#9CE8C3;" d="M102.5,90.16c-3.318,1.467-6.638,2.777-9.956,3.932v-1.27c3.108-1.093,6.216-2.323,9.325-3.692
		C102.092,89.461,102.303,89.805,102.5,90.16L102.5,90.16z M92.544,106.862v-1.254c4.247-1.327,8.495-2.883,12.743-4.67
		c0.036,0.421,0.066,0.841,0.093,1.259C101.102,103.984,96.823,105.538,92.544,106.862L92.544,106.862z M92.544,100.642v-1.265
		c3.913-1.331,7.827-2.872,11.741-4.628c0.104,0.391,0.197,0.786,0.283,1.186C100.561,97.725,96.553,99.292,92.544,100.642z
		 M92.544,94.091c-12.706,4.421-25.415,6.563-38.128,6.517v-1.195c12.706,0.047,25.415-2.119,38.128-6.591V94.091L92.544,94.091z
		 M92.544,99.377c-12.712,4.323-25.422,6.419-38.128,6.372v1.195c12.712,0.046,25.422-2.026,38.128-6.303V99.377L92.544,99.377z
		 M92.544,105.608v1.254c-2.246,0.695-4.493,1.327-6.739,1.896h-5.286C84.528,107.91,88.535,106.861,92.544,105.608z
		 M54.416,100.608h-0.031c-12.589-0.049-25.175-2.246-37.758-6.501v-1.263c12.591,4.3,25.179,6.52,37.763,6.568h0.026V100.608
		L54.416,100.608z M54.416,105.749H54.39c-12.584-0.049-25.172-2.2-37.763-6.367v1.261c12.584,4.124,25.17,6.252,37.758,6.302h0.031
		V105.749L54.416,105.749z M16.627,106.828v-1.251c4.126,1.262,8.252,2.322,12.378,3.181h-5.376
		C21.295,108.178,18.961,107.535,16.627,106.828z M16.627,94.107c-3.432-1.16-6.863-2.474-10.294-3.938
		c0.196-0.355,0.406-0.7,0.629-1.033c3.222,1.371,6.443,2.607,9.665,3.708V94.107L16.627,94.107z M16.627,99.382v1.261
		c-4.126-1.353-8.252-2.919-12.377-4.697c0.088-0.397,0.183-0.791,0.287-1.18C8.568,96.51,12.598,98.049,16.627,99.382
		L16.627,99.382z M16.627,105.577v1.251c-4.408-1.335-8.815-2.897-13.223-4.683c0.029-0.415,0.063-0.832,0.101-1.25
		C7.879,102.678,12.254,104.24,16.627,105.577z"/>
	<g>
		<path style="fill-rule:evenodd;clip-rule:evenodd;fill:#388761;" d="M21.525,108.757c0.063-2.012,0.246-4.434,0.731-7.387
			c-0.906,2.88-1.549,5.289-2.001,7.387H21.525z"/>
		<path style="fill-rule:evenodd;clip-rule:evenodd;fill:#388761;" d="M87.233,108.757c-0.063-2.012-0.246-4.434-0.731-7.387
			c0.907,2.88,1.549,5.289,2.001,7.387H87.233z"/>
	</g>
</g>
<g>
</g>
<g>
</g>
<g>
</g>
<g>
</g>
<g>
</g>
<g>
</g>
<g>
</g>
<g>
</g>
<g>
</g>
<g>
</g>
<g>
</g>
<g>
</g>
<g>
</g>
<g>
</g>
<g>
</g>
</svg>
