<?xml version="1.0" encoding="iso-8859-1"?>
<!-- Generator: Adobe Illustrator 18.0.0, SVG Export Plug-In . SVG Version: 6.00 Build 0)  -->
<!DOCTYPE svg PUBLIC "-//W3C//DTD SVG 1.1//EN" "http://www.w3.org/Graphics/SVG/1.1/DTD/svg11.dtd">
<svg version="1.1" id="Capa_1" xmlns="http://www.w3.org/2000/svg" xmlns:xlink="http://www.w3.org/1999/xlink" x="0px" y="0px"
	 viewBox="0 0 106.669 106.669" style="enable-background:new 0 0 106.669 106.669;" xml:space="preserve">
<g>
	<path style="fill-rule:evenodd;clip-rule:evenodd;fill:#CC7C54;" d="M27.901,92.779C19.012,55.47,14.29,0,52.724,0
		c38.435,0,36.392,54.908,27.151,93.957C61.888,104.499,43.42,101.592,27.901,92.779z"/>
	<path style="fill-rule:evenodd;clip-rule:evenodd;fill:#FFDECC;" d="M63.004,66.154c-0.198,0.313-19.746,0.624-19.961,0.932
		c-6.14,8.759-19.404,12.596-29.951,14.954C2.594,84.387,2.188,97.72,2.172,106.6h102.325c-0.016-8.88-0.21-22.165-10.919-24.56
		C82.869,79.646,68.828,75.312,63.004,66.154z"/>
	<path style="fill-rule:evenodd;clip-rule:evenodd;fill:#FFDECC;" d="M63.587,47.45v25.117c-5.64,7.411-14.865,7.155-20.504,0V47.45
		C43.083,33.889,63.587,33.889,63.587,47.45z"/>
	<path style="fill-rule:evenodd;clip-rule:evenodd;fill:#F7C5AA;" d="M63.587,47.45v16.816c-3.88,3.035-7.619,4.735-10.252,4.735
		c-2.633,0-6.372-1.7-10.252-4.734V47.45C43.083,33.889,63.587,33.889,63.587,47.45z"/>
	<path style="fill-rule:evenodd;clip-rule:evenodd;fill:#FFDECC;" d="M53.335,64.824c-6.675,0-20.775-10.494-25.135-25.523
		C23.799,24.124,32.088,2.356,53.335,2.356s29.536,21.768,25.134,36.944C74.109,54.33,60.01,64.824,53.335,64.824z"/>
	<path style="fill-rule:evenodd;clip-rule:evenodd;fill:#FF386A;" d="M45.672,49.693c3.402-3.293,6.055-0.823,8.041-0.823
		c1.986,0,4.639-2.47,8.04,0.823C59.926,58.378,48.097,58.644,45.672,49.693z"/>
	<path style="fill-rule:evenodd;clip-rule:evenodd;fill:#C9204A;" d="M45.672,49.693c3.401-3.293,6.055-0.823,8.041-0.823
		c1.986,0,4.639-2.47,8.04,0.823C56.552,52.256,49.173,51.059,45.672,49.693z"/>
	
		<ellipse transform="matrix(-0.3947 -0.9188 0.9188 -0.3947 -1.24 84.0747)" style="fill-rule:evenodd;clip-rule:evenodd;fill:#FFDECC;" cx="27.075" cy="42.446" rx="7.317" ry="4.231"/>
	
		<ellipse transform="matrix(0.3946 -0.9188 0.9188 0.3946 8.853 98.3278)" style="fill-rule:evenodd;clip-rule:evenodd;fill:#FFDECC;" cx="79.047" cy="42.445" rx="7.316" ry="4.231"/>
	<path style="fill-rule:evenodd;clip-rule:evenodd;fill:#CC7C54;" d="M79.188,39.001C84.383,10.523,67.547,1.487,53.34,1.487
		c-16.002,0-32.543,12.273-24.888,38.453c15.254-0.752,29.199-9.786,42.677-27.653C73.424,21.363,74.973,33.16,79.188,39.001z"/>
	<g>
		<path style="fill-rule:evenodd;clip-rule:evenodd;fill:#F7C5AA;" d="M20.481,106.601c0.062-2.012,0.245-4.435,0.731-7.387
			c-0.907,2.879-1.549,5.288-2.002,7.387H20.481z"/>
		<path style="fill-rule:evenodd;clip-rule:evenodd;fill:#F7C5AA;" d="M86.189,106.601c-0.062-2.012-0.246-4.435-0.732-7.387
			c0.907,2.879,1.549,5.288,2.002,7.387H86.189z"/>
	</g>
	<path style="fill-rule:evenodd;clip-rule:evenodd;fill:#FF386A;" d="M42.914,67.478c-4.235,24.796-18.146,30.29-17.42,39.191
		l55.665-0.069c0.957-7.525-14.208-17.132-17.411-39.22C60.559,73.611,46.137,73.674,42.914,67.478z"/>
</g>
<g>
</g>
<g>
</g>
<g>
</g>
<g>
</g>
<g>
</g>
<g>
</g>
<g>
</g>
<g>
</g>
<g>
</g>
<g>
</g>
<g>
</g>
<g>
</g>
<g>
</g>
<g>
</g>
<g>
</g>
</svg>
