<?xml version="1.0" encoding="iso-8859-1"?>
<!-- Generator: Adobe Illustrator 18.0.0, SVG Export Plug-In . SVG Version: 6.00 Build 0)  -->
<!DOCTYPE svg PUBLIC "-//W3C//DTD SVG 1.1//EN" "http://www.w3.org/Graphics/SVG/1.1/DTD/svg11.dtd">
<svg version="1.1" id="Capa_1" xmlns="http://www.w3.org/2000/svg" xmlns:xlink="http://www.w3.org/1999/xlink" x="0px" y="0px"
	 viewBox="0 0 107.643 107.643" style="enable-background:new 0 0 107.643 107.643;" xml:space="preserve">
<g>
	<path style="fill-rule:evenodd;clip-rule:evenodd;fill:#A2400F;" d="M74.076,8.787c3.454-1.611,12.995,8.748,9.899,23.479
		C70.663,95.612,65.602,89.348,53.709,89.348c-11.201,0-14.24,1.779-28.899-54.77c-3.223-12.432,3.45-24.409,13.812-30.164
		S63.485-2.947,74.076,8.787z"/>
	<path style="fill-rule:evenodd;clip-rule:evenodd;fill:#FFDECC;" d="M63.491,67.197c-0.199,0.313-19.746,0.624-19.962,0.932
		c-6.14,8.759-19.404,12.596-29.951,14.954C3.081,85.43,2.674,98.762,2.659,107.643h102.325c-0.017-8.88-0.211-22.165-10.919-24.56
		C83.356,80.688,69.315,76.354,63.491,67.197z"/>
	<path style="fill-rule:evenodd;clip-rule:evenodd;fill:#FFDECC;" d="M64.073,48.493V73.61c-5.639,7.412-14.864,7.155-20.503,0
		V48.493C43.57,34.931,64.073,34.931,64.073,48.493z"/>
	<path style="fill-rule:evenodd;clip-rule:evenodd;fill:#F7C5AA;" d="M64.073,48.493v16.816c-3.879,3.035-7.618,4.735-10.252,4.735
		c-2.633,0-6.372-1.701-10.251-4.735V48.493C43.57,34.931,64.073,34.931,64.073,48.493z"/>
	<path style="fill-rule:evenodd;clip-rule:evenodd;fill:#FFDECC;" d="M53.821,65.867c-6.674,0-20.775-10.494-25.134-25.524
		C24.286,25.167,32.575,3.399,53.821,3.399c8.619,0,15.106,3.582,19.479,8.852c6.406,7.723,8.273,19.071,5.656,28.091
		C74.596,55.373,60.497,65.867,53.821,65.867z"/>
	<path style="fill-rule:evenodd;clip-rule:evenodd;fill:#FF386A;" d="M45.781,50.736c3.401-3.293,6.055-0.823,8.04-0.823
		c1.987,0,4.64-2.47,8.041,0.823C60.035,59.42,48.206,59.687,45.781,50.736z"/>
	<path style="fill-rule:evenodd;clip-rule:evenodd;fill:#C9204A;" d="M45.782,50.736c3.4-3.293,6.054-0.823,8.04-0.823
		c1.986,0,4.64-2.47,8.04,0.823C56.661,53.298,49.282,52.102,45.782,50.736z"/>
	
		<ellipse transform="matrix(-0.3947 -0.9188 0.9188 -0.3947 -0.37 82.0825)" style="fill-rule:evenodd;clip-rule:evenodd;fill:#FFDECC;" cx="26.854" cy="41.163" rx="7.317" ry="4.231"/>
	
		<ellipse transform="matrix(0.3946 -0.9188 0.9188 0.3946 10.8054 98.7267)" style="fill-rule:evenodd;clip-rule:evenodd;fill:#FFDECC;" cx="80.326" cy="41.163" rx="7.316" ry="4.231"/>
	<path style="fill-rule:evenodd;clip-rule:evenodd;fill:#A2400F;" d="M78.091,42.817c0,0-0.632-15.122-4.794-20.847
		c-7.548,16.603-35.092-0.565-42.324,24.169c-6.641-11.557-3.833-25.479,0.747-32.065c8.839-12.711,27.772-15.527,40.702-3.968
		C81.395,18.127,83.461,31.815,78.091,42.817z"/>
	<path style="fill:#68C497;" d="M8.137,85.943c10.706,5.388,27.782,9.059,45.656,9.222c15.998,0.146,32.555-2.539,45.642-9.348
		c0.96,0.878,1.754,1.911,2.41,3.054c-1.214,0.648-2.456,1.26-3.723,1.84c-5.096,2.896-11.82,8.362-12.217,16.931H22.028
		c-0.184-8.581-8.146-14.456-13.437-17.291c-0.97-0.435-1.9-0.883-2.789-1.342C6.44,87.865,7.21,86.83,8.137,85.943z"/>
</g>
<g>
</g>
<g>
</g>
<g>
</g>
<g>
</g>
<g>
</g>
<g>
</g>
<g>
</g>
<g>
</g>
<g>
</g>
<g>
</g>
<g>
</g>
<g>
</g>
<g>
</g>
<g>
</g>
<g>
</g>
</svg>
