<?xml version="1.0" encoding="iso-8859-1"?>
<!-- Generator: Adobe Illustrator 18.0.0, SVG Export Plug-In . SVG Version: 6.00 Build 0)  -->
<!DOCTYPE svg PUBLIC "-//W3C//DTD SVG 1.1//EN" "http://www.w3.org/Graphics/SVG/1.1/DTD/svg11.dtd">
<svg version="1.1" id="Capa_1" xmlns="http://www.w3.org/2000/svg" xmlns:xlink="http://www.w3.org/1999/xlink" x="0px" y="0px"
	 viewBox="0 0 107.294 107.294" style="enable-background:new 0 0 107.294 107.294;" xml:space="preserve">
<g>
	<path style="fill-rule:evenodd;clip-rule:evenodd;fill:#4D1B02;" d="M16.474,72.538c2.428,6.068,23.046,8.401,9.78-25.005
		C10.769,8.535,39.933-4.697,53.901,1.43c16.731-5.558,37.242,11.894,27.953,46.103c-9.418,34.688,8.883,30.553,11.311,24.484
		C75.895,116.414,34.095,116.935,16.474,72.538z"/>
	<path style="fill-rule:evenodd;clip-rule:evenodd;fill:#FFDECC;" d="M63.315,66.849c-0.198,0.312-19.745,0.623-19.961,0.932
		c-6.14,8.758-19.404,12.595-29.951,14.953C2.906,85.081,2.5,98.414,2.484,107.294H104.81c-0.017-8.88-0.211-22.165-10.92-24.56
		C83.182,80.339,69.14,76.005,63.315,66.849z"/>
	<path style="fill-rule:evenodd;clip-rule:evenodd;fill:#FFDECC;" d="M63.898,48.145v25.117c-5.639,7.411-14.865,7.155-20.503,0
		V48.145C43.395,34.582,63.898,34.582,63.898,48.145z"/>
	<path style="fill-rule:evenodd;clip-rule:evenodd;fill:#F7C5AA;" d="M63.898,48.145V64.96c-3.88,3.035-7.618,4.735-10.252,4.735
		c-2.633,0-6.372-1.7-10.251-4.735V48.145C43.395,34.582,63.898,34.582,63.898,48.145z"/>
	<path style="fill-rule:evenodd;clip-rule:evenodd;fill:#FFDECC;" d="M53.646,65.519c-6.675,0-20.775-10.494-25.134-25.524
		C24.11,24.818,32.399,3.051,53.646,3.051s29.537,21.767,25.135,36.944C74.421,55.025,60.321,65.519,53.646,65.519z"/>
	<path style="fill-rule:evenodd;clip-rule:evenodd;fill:#FF386A;" d="M45.983,50.388c3.402-3.293,6.055-0.823,8.041-0.823
		c1.986,0,4.639-2.47,8.041,0.823C60.237,59.072,48.408,59.338,45.983,50.388z"/>
	<path style="fill-rule:evenodd;clip-rule:evenodd;fill:#FF386A;" d="M3.351,95.287c-0.789,4.046-0.859,8.395-0.866,12.007H104.81
		c-0.007-3.616-0.043-7.963-0.807-12.007H3.351z"/>
	<path style="fill-rule:evenodd;clip-rule:evenodd;fill:#C9204A;" d="M45.984,50.388c3.401-3.293,6.054-0.823,8.04-0.823
		c1.986,0,4.64-2.47,8.041,0.823C56.864,52.95,49.485,51.753,45.984,50.388z"/>
	<path style="fill-rule:evenodd;clip-rule:evenodd;fill:#4D1B02;" d="M26.255,24.637c0.941-30.783,54.538-27.899,54.783,0
		C65.27,28.422,39.858,27.802,26.255,24.637z"/>
	
		<ellipse transform="matrix(-0.3946 -0.9188 0.9188 -0.3946 3.1149 77.1724)" style="fill-rule:evenodd;clip-rule:evenodd;fill:#FFDECC;" cx="26.98" cy="37.56" rx="7.316" ry="4.232"/>
	
		<ellipse transform="matrix(0.3946 -0.9188 0.9188 0.3946 14.1926 96.6617)" style="fill-rule:evenodd;clip-rule:evenodd;fill:#FFDECC;" cx="80.453" cy="37.56" rx="7.316" ry="4.232"/>
	<path style="fill-rule:evenodd;clip-rule:evenodd;fill:#4D1B02;" d="M67.599,18.236c10.794,6.878,11.427,16.116,11.869,23.255
		C84.32,35.443,84.738,14.029,67.599,18.236z"/>
	<path style="fill-rule:evenodd;clip-rule:evenodd;fill:#4D1B02;" d="M39.851,18.236c-10.795,6.878-11.428,16.116-11.869,23.255
		C23.128,35.443,22.71,14.029,39.851,18.236z"/>
	<g>
		<path style="fill-rule:evenodd;clip-rule:evenodd;fill:#C21842;" d="M20.793,107.294c0.063-2.012,0.246-4.434,0.731-7.387
			c-0.906,2.879-1.549,5.289-2.001,7.387H20.793z"/>
		<path style="fill-rule:evenodd;clip-rule:evenodd;fill:#C21842;" d="M86.501,107.294c-0.063-2.012-0.246-4.434-0.731-7.387
			c0.907,2.879,1.549,5.289,2.001,7.387H86.501z"/>
	</g>
</g>
<g>
</g>
<g>
</g>
<g>
</g>
<g>
</g>
<g>
</g>
<g>
</g>
<g>
</g>
<g>
</g>
<g>
</g>
<g>
</g>
<g>
</g>
<g>
</g>
<g>
</g>
<g>
</g>
<g>
</g>
</svg>
