<?xml version="1.0" encoding="iso-8859-1"?>
<!-- Generator: Adobe Illustrator 18.0.0, SVG Export Plug-In . SVG Version: 6.00 Build 0)  -->
<!DOCTYPE svg PUBLIC "-//W3C//DTD SVG 1.1//EN" "http://www.w3.org/Graphics/SVG/1.1/DTD/svg11.dtd">
<svg version="1.1" id="Capa_1" xmlns="http://www.w3.org/2000/svg" xmlns:xlink="http://www.w3.org/1999/xlink" x="0px" y="0px"
	 viewBox="0 0 108.514 108.514" style="enable-background:new 0 0 108.514 108.514;" xml:space="preserve">
<g>
	<path style="fill-rule:evenodd;clip-rule:evenodd;fill:#4D1B02;" d="M44.068,3.881c2.727-4.387,24.457-8.254,33.323,7.338
		s4.4,21.054,9.292,26.557c4.891,5.503,0.285,18.133-3.113,19.239c-3.398,1.107-2.034,5.475-0.377,7.351
		c7.074,8.011-3.155,21.514-30.467,21.376C23.53,85.594,17.802,69.89,25.286,64.991c2.441-1.598,3.388-4.666,0.714-7.369
		c-2.674-2.703-8.837-12.773-3.028-21.028C28.781,28.339,23.704,3.868,44.068,3.881z"/>
	<path style="fill-rule:evenodd;clip-rule:evenodd;fill:#FFA8BE;" d="M63.926,68.069C63.728,68.381,44.18,68.693,43.964,69
		c-6.139,8.759-19.404,12.596-29.951,14.954C3.517,86.301,3.11,99.634,3.095,108.514h102.324c-0.016-8.88-0.211-22.165-10.919-24.56
		C83.791,81.56,69.75,77.226,63.926,68.069z"/>
	<path style="fill-rule:evenodd;clip-rule:evenodd;fill:#FFDECC;" d="M64.509,49.365v25.117c-6.145,10.782-15.367,10.509-20.504,0
		V49.365C44.005,35.803,64.509,35.803,64.509,49.365z"/>
	<path style="fill-rule:evenodd;clip-rule:evenodd;fill:#F7C5AA;" d="M64.509,49.365v16.816c-3.88,3.035-7.619,4.735-10.252,4.735
		c-2.633,0-6.372-1.7-10.252-4.734V49.365C44.005,35.803,64.509,35.803,64.509,49.365z"/>
	<path style="fill-rule:evenodd;clip-rule:evenodd;fill:#FFDECC;" d="M54.257,66.739c-6.675,0-20.775-10.494-25.135-25.523
		C24.721,26.038,33.01,4.271,54.257,4.271c21.246,0,29.537,21.768,25.135,36.944C75.031,56.244,60.932,66.739,54.257,66.739z"/>
	<path style="fill-rule:evenodd;clip-rule:evenodd;fill:#FF386A;" d="M46.217,51.608c3.401-3.293,6.054-0.823,8.04-0.823
		c1.986,0,4.639-2.47,8.04,0.823C60.47,60.292,48.641,60.559,46.217,51.608z"/>
	<path style="fill-rule:evenodd;clip-rule:evenodd;fill:#FFFFFF;" d="M47.261,52.057c1.859-0.476,11.329-0.572,13.992-0.104
		C59.054,56.002,49.122,55.768,47.261,52.057z"/>
	<path style="fill-rule:evenodd;clip-rule:evenodd;fill:#FF386A;" d="M46.217,51.608c3.401-3.293,6.054-0.823,8.04-0.823
		c1.986,0,4.64-2.47,8.04,0.823C57.097,54.17,49.717,52.973,46.217,51.608z"/>
	
		<ellipse transform="matrix(0.3947 -0.9188 0.9188 0.3947 7.487 100.084)" style="fill-rule:evenodd;clip-rule:evenodd;fill:#FFDECC;" cx="79.702" cy="44.36" rx="7.317" ry="4.231"/>
	
		<ellipse transform="matrix(-0.3947 -0.9188 0.9188 -0.3947 -0.607 88.3204)" style="fill-rule:evenodd;clip-rule:evenodd;fill:#FFDECC;" cx="28.79" cy="44.36" rx="7.317" ry="4.231"/>
	<path style="fill-rule:evenodd;clip-rule:evenodd;fill:#4D1B02;" d="M65.468,17.945c0.291,11.653,0.917,18.649,7.643,15.897
		c6.726-2.752,5.449,4.962,4.227,10.465c5.957-7.433,5.257-14.491,3.404-21.669c-2.03-7.864-12.272-19.83-21.877-19.609
		c-5.22-0.54-13.12,0.098-21.523,6.05c-14.675,10.395-9.773,33.75-5.82,36.505c-3.829-21.633,5.545-17.229,12.014-28.544
		C45.66,12.064,65.161,5.708,65.468,17.945z"/>
	<g>
		<polygon style="fill-rule:evenodd;clip-rule:evenodd;fill:#FF386A;" points="44.006,68.981 36.689,75.669 45.993,90.11 
			54.025,82.491 		"/>
		<polygon style="fill-rule:evenodd;clip-rule:evenodd;fill:#FF386A;" points="64.509,68.931 71.825,75.903 62.054,90.11 
			54.025,82.491 		"/>
	</g>
	<rect x="53.205" y="82.575" style="fill-rule:evenodd;clip-rule:evenodd;fill:#FF386A;" width="2.103" height="25.939"/>
	<path style="fill-rule:evenodd;clip-rule:evenodd;fill:#FF386A;" d="M21.402,108.514c0.063-2.012,0.246-4.434,0.732-7.387
		c-0.906,2.88-1.549,5.289-2.001,7.387H21.402z"/>
	<path style="fill-rule:evenodd;clip-rule:evenodd;fill:#FF386A;" d="M87.11,108.514c-0.062-2.012-0.246-4.434-0.731-7.387
		c0.907,2.88,1.549,5.289,2.002,7.387H87.11z"/>
</g>
<g>
</g>
<g>
</g>
<g>
</g>
<g>
</g>
<g>
</g>
<g>
</g>
<g>
</g>
<g>
</g>
<g>
</g>
<g>
</g>
<g>
</g>
<g>
</g>
<g>
</g>
<g>
</g>
<g>
</g>
</svg>
