<?xml version="1.0" encoding="iso-8859-1"?>
<!-- Generator: Adobe Illustrator 18.0.0, SVG Export Plug-In . SVG Version: 6.00 Build 0)  -->
<!DOCTYPE svg PUBLIC "-//W3C//DTD SVG 1.1//EN" "http://www.w3.org/Graphics/SVG/1.1/DTD/svg11.dtd">
<svg version="1.1" id="Capa_1" xmlns="http://www.w3.org/2000/svg" xmlns:xlink="http://www.w3.org/1999/xlink" x="0px" y="0px"
	 viewBox="0 0 131.006 131.006" style="enable-background:new 0 0 131.006 131.006;" xml:space="preserve">
<g>
	<path style="fill-rule:evenodd;clip-rule:evenodd;fill:#802D04;" d="M64.663,0.005C77.85,0.229,87.446,3.143,95.764,17.411
		c6.412,11,11.629,42.034,0.133,65.623c0.078-5.401-2.378-10.471-6.541-13.105c1.979,5.945,9.754,14.974,1.933,26.676
		c-7.681,11.491-39.529,11.393-51.7-5.449c-4.254-5.885-3.802-13.465,1.092-20.769c-6.171,2.739-5.804,13.896-6.933,11.512
		c-3.218-4.484-13.179-30.355,1.465-62.137C40.743,7.76,51.077-0.226,64.663,0.005z"/>
	<path style="fill-rule:evenodd;clip-rule:evenodd;fill:#FFDECC;" d="M78.105,55.042v28.767c-6.931,8.488-18.272,8.194-25.202,0
		V55.042C52.903,39.509,78.105,39.509,78.105,55.042z"/>
	<path style="fill-rule:evenodd;clip-rule:evenodd;fill:#497194;" d="M53.764,77.721C27.813,89.098,20.028,95.164,16.951,97.887
		c-4.742,4.196-7.365,19.838-10.162,33.119h58.715h58.714c-2.797-13.281-5.42-28.923-10.162-33.119
		c-3.076-2.723-10.576-8.633-36.528-20.01L53.764,77.721z"/>
	<path style="fill-rule:evenodd;clip-rule:evenodd;fill:#FFDECC;" d="M50.27,75.785l-1.306,55.221h33.024l-1.307-55.221
		C70.545,75.785,60.408,75.785,50.27,75.785z"/>
	<path style="fill-rule:evenodd;clip-rule:evenodd;fill:#FFFFFF;" d="M45.702,91.399c6.531,4.856,24.619,8.038,40.865,1.172
		c-11.227,14.836-7.369,38.435-7.369,38.435H56.252C56.252,131.006,53.909,110.324,45.702,91.399z"/>
	<path style="fill-rule:evenodd;clip-rule:evenodd;fill:#F7C5AA;" d="M78.104,55.042v19.26c-4.768,3.476-9.364,5.423-12.601,5.423
		c-3.236,0-7.833-1.947-12.601-5.423v-19.26C52.903,39.509,78.104,39.509,78.104,55.042z"/>
	<path style="fill-rule:evenodd;clip-rule:evenodd;fill:#86BCEB;" d="M52.903,69.137v14.672l5.474,47.197h-9.412L38.61,109.984
		l9.884-6.589l-12.079-5.647C36.415,97.748,38.95,77.938,52.903,69.137z"/>
	<path style="fill-rule:evenodd;clip-rule:evenodd;fill:#86BCEB;" d="M78.104,69.137l0.001,14.672l-5.528,47.197h9.412
		l10.354-21.021l-9.883-6.589l12.079-5.647C94.539,97.748,90.034,76.925,78.104,69.137z"/>
	<path style="fill-rule:evenodd;clip-rule:evenodd;fill:#FFDECC;" d="M65.503,3.396c-42.292,0-27.083,51.102-24.32,55.17
		c3.046,4.485,17.487,16.376,24.32,16.376s21.273-11.891,24.319-16.376C92.586,54.497,107.795,3.396,65.503,3.396z"/>
	<path style="fill-rule:evenodd;clip-rule:evenodd;fill:#F7C5AA;" d="M51.944,54.094c9.258,3.58,19.715,3.231,27.119,0
		C76.103,61.756,56.163,61.818,51.944,54.094z"/>
	<path style="fill-rule:evenodd;clip-rule:evenodd;fill:#F7C5AA;" d="M54.687,52.59c-1.705,1.418-2.774,3.497-2.947,5.294
		C50.569,55.91,52.724,51.974,54.687,52.59z"/>
	<path style="fill-rule:evenodd;clip-rule:evenodd;fill:#F7C5AA;" d="M76.13,52.59c1.704,1.418,2.772,3.497,2.947,5.294
		C80.249,55.91,78.093,51.974,76.13,52.59z"/>
	
		<ellipse transform="matrix(-0.3128 -0.9498 0.9498 -0.3128 7.9914 87.0858)" style="fill-rule:evenodd;clip-rule:evenodd;fill:#FFDECC;" cx="35.5" cy="40.652" rx="7.317" ry="4.231"/>
	
		<ellipse transform="matrix(0.3128 -0.9498 0.9498 0.3128 27.2302 118.9397)" style="fill-rule:evenodd;clip-rule:evenodd;fill:#FFDECC;" cx="95.811" cy="40.652" rx="7.317" ry="4.231"/>
	<path style="fill-rule:evenodd;clip-rule:evenodd;fill:#802D04;" d="M93.06,47.023c0,0-2.76-15.065-9.122-23.705
		c-4.609,10.139-9.161,15.104-31.057,20.262c6.628-5.561,9.712-13.901,10.027-18.417c-14.176,3.907-22.932,14.958-25.12,22.438
		c-6.642-11.557-0.564-28.979,4.015-35.564C50.641-0.673,72.291-3.76,85.22,7.798C94.192,15.818,97.887,14.035,93.06,47.023z"/>
	<g>
		<path style="fill-rule:evenodd;clip-rule:evenodd;fill:#264057;" d="M30.716,131.006h2.011c-0.09-8.941-0.09-15.386-0.09-15.386
			S31.747,122.317,30.716,131.006z"/>
		<path style="fill-rule:evenodd;clip-rule:evenodd;fill:#264057;" d="M100.291,131.006h-2.012c0.09-8.941,0.09-15.386,0.09-15.386
			S99.259,122.317,100.291,131.006z"/>
	</g>
</g>
<g>
</g>
<g>
</g>
<g>
</g>
<g>
</g>
<g>
</g>
<g>
</g>
<g>
</g>
<g>
</g>
<g>
</g>
<g>
</g>
<g>
</g>
<g>
</g>
<g>
</g>
<g>
</g>
<g>
</g>
</svg>
